inDegrees=no
num_controls=7
num_derivatives=13
num_iterations=102
num_multipliers=7
num_parameters=0
num_slacks=7
num_states=26
objective=0.449651
objective_accelerations=0.045240
objective_balance=0.004789
objective_effort=0.022911
objective_height=0.371370
objective_ligament=0.005342
solver_duration=1530.962593
status=Solve_Succeeded
success=true
DataType=double
version=3
OpenSimVersion=4.5
endheader
time	/jointset/ground_pelvis/pelvis_tilt/value	/jointset/ground_pelvis/pelvis_tx/value	/jointset/ground_pelvis/pelvis_ty/value	/jointset/hip_l/hip_flexion_l/value	/jointset/hip_l/hip_adduction_l/value	/jointset/hip_l/hip_rotation_l/value	/jointset/back/lumbar_extension/value	/jointset/patellofemoral_l/patellar_flexion_l/value	/jointset/knee_l/knee_flexion_l/value	/jointset/knee_l/knee_adduction_l/value	/jointset/knee_l/knee_rotation_l/value	/jointset/ankle_l/ankle_angle_l/value	/jointset/subtalar_l/subtalar_angle_l/value	/jointset/ground_pelvis/pelvis_tilt/speed	/jointset/ground_pelvis/pelvis_tx/speed	/jointset/ground_pelvis/pelvis_ty/speed	/jointset/hip_l/hip_flexion_l/speed	/jointset/hip_l/hip_adduction_l/speed	/jointset/hip_l/hip_rotation_l/speed	/jointset/back/lumbar_extension/speed	/jointset/patellofemoral_l/patellar_flexion_l/speed	/jointset/knee_l/knee_flexion_l/speed	/jointset/knee_l/knee_adduction_l/speed	/jointset/knee_l/knee_rotation_l/speed	/jointset/ankle_l/ankle_angle_l/speed	/jointset/subtalar_l/subtalar_angle_l/speed	/forceset/tau_hip_flexion_l	/forceset/tau_hip_adduction_l	/forceset/tau_hip_rotation_l	/forceset/tau_knee_flexion_l	/forceset/tau_ankle_angle_l	/forceset/tau_subtalar_angle_l	/forceset/tau_lumbar_extension	lambda_cid13_p0	lambda_cid13_p1	lambda_cid13_p2	lambda_cid13_p3	lambda_cid13_p4	lambda_cid13_p5	lambda_cid14_p0	/jointset/ground_pelvis/pelvis_tilt/accel	/jointset/ground_pelvis/pelvis_tx/accel	/jointset/ground_pelvis/pelvis_ty/accel	/jointset/hip_l/hip_flexion_l/accel	/jointset/hip_l/hip_adduction_l/accel	/jointset/hip_l/hip_rotation_l/accel	/jointset/back/lumbar_extension/accel	/jointset/patellofemoral_l/patellar_flexion_l/accel	/jointset/knee_l/knee_flexion_l/accel	/jointset/knee_l/knee_adduction_l/accel	/jointset/knee_l/knee_rotation_l/accel	/jointset/ankle_l/ankle_angle_l/accel	/jointset/subtalar_l/subtalar_angle_l/accel	gamma_cid13_p0	gamma_cid13_p1	gamma_cid13_p2	gamma_cid13_p3	gamma_cid13_p4	gamma_cid13_p5	gamma_cid14_p0
1.5	-0.4233942619526506	-0.04764875381952347	0.7849207423142528	1.063838861719715	-0.4262762058953614	-0.2902751216753046	-0.2235579640897002	0.6039951715390468	0.6039951715393133	-0.1742768018305434	-0.1576690812898488	-0.002864149470578791	-0.0774004471124123	0.8469079550767975	0.3600384147896979	0.4224855917121991	-2.334070557678217	0.2242033769955264	-0.5845942644208301	0.3188674147817294	-1.471579961288522	-1.471579961288437	-0.002157177182857294	0.09023538072000216	-0.06860558163989879	0.2142902290838095	-0.2007209587643812	0.02606846172817518	-0.0009992758086095226	-0.1505615199395804	0.06040009904420295	0.05198257654587898	0.1845486532795004	-13.94994710582133	-23.26467603028174	6.949666452583762	-6.075797812692945	-525.2136949371126	-66.23816305756034	-34.37528513476386	0.5770031125554574	0.6412214579791506	-0.3421817515136227	-1.304778272321172	0.5316895050838039	-0.08056793393386275	1.418365013990608	-1.005319118602336	-1.005319118602211	0.04020538052300902	0.2215130738413378	-0.08335283252216469	0.5348343014752498	-2.330192636706512e-08	7.632777243075552e-07	1.1672272046476e-07	2.361615388200193e-07	1.376765158967362e-07	-1.245687707973894e-07	1.014061974380285e-07
1.51	-0.4148967153442084	-0.04401667791065619	0.7891276422340505	1.040434955331311	-0.4240085230590537	-0.2961257388052091	-0.2202996292312952	0.5892312763466951	0.589231276346954	-0.1742971905303083	-0.1567575058136381	-0.003554324657701791	-0.07523176786139782	0.8524774410111395	0.3663301643860026	0.4188058391561745	-2.346377478594921	0.2293064490009124	-0.5854549922665566	0.3327594273190261	-1.480987979304821	-1.4809879793051	-0.001920704992524181	0.09206362202875562	-0.06941068558223525	0.2194263327395221	-0.1938998323063117	0.02481068224219954	-0.00110554845596405	-0.1491238691309932	0.05942518233385176	0.05063414761481921	0.1791900685906624	-14.0591935772583	-22.71955036254267	6.930864858475891	-5.777275575605304	-521.7684914582688	-66.41749836316799	-34.93747123583844	0.5283141405526404	0.6162069699724405	-0.3941214367439034	-1.143679884932826	0.4954693131600311	-0.07760317385295859	1.368599936556871	-0.8769004447566985	-0.8769004448112857	0.01549717417681136	0.1610274739083141	-0.07626414085552133	0.4999765778014325	-1.628179271566107e-08	7.744224138793184e-07	7.26635465480621e-08	2.30937279804472e-07	1.574741426879086e-07	-1.194009310903663e-07	1.070225434049446e-07
1.52	-0.4063471953150869	-0.0403230734539226	0.7932950947424685	1.016917973557023	-0.4216906388497128	-0.3019827188063635	-0.2169035781349259	0.5743796295138589	0.574379629514105	-0.1743151887009944	-0.1558281383614351	-0.00425198587740139	-0.07301233193778973	0.8573026392126439	0.3723441243629604	0.4145961094362646	-2.356685634855136	0.2342436516020594	-0.585866838670719	0.3464106623746289	-1.489130289385639	-1.489130289386282	-0.001679071366656776	0.09379377591814733	-0.0701027881552173	0.2244415636025211	-0.187078705848244	0.02355290275622427	-0.001211821103326016	-0.1476862183224053	0.0584502656235007	0.04928571868375999	0.1738314839018226	-14.17768859394231	-22.17348551177248	6.912690581736324	-5.459466701468178	-518.4506986664046	-66.62324546384703	-35.48198289172483	0.4281455659879428	0.5856635341097799	-0.4481771842906813	-0.9050253410231782	0.4985156242360013	0.009208354378995027	1.370209517651785	-0.7521775315059955	-0.7521775315061129	0.04123766762987084	0.2018955899689882	-0.0607525586512881	0.51065974293251	-1.490354809265733e-08	7.898686609528995e-07	5.202399293040962e-08	2.300581456090443e-07	1.696967819578981e-07	-1.114138605433781e-07	1.093035354349422e-07
1.53	-0.3977531356948052	-0.03657080583567381	0.7974178460326635	0.9933079376122602	-0.4193242449081135	-0.3078416056889286	-0.2133723889053382	0.5594529369292047	0.5594529369293335	-0.1743307719097438	-0.1548819772646011	-0.004956024541021173	-0.07074339351251369	0.8613825738613631	0.3780534513492984	0.4098698664330112	-2.36497842609558	0.2390030439770328	-0.5858330348283352	0.3597725832718847	-1.495990379829839	-1.495990379830028	-0.00144137120560977	0.09542407800376605	-0.070688842903392	0.2293198362366397	-0.1802895062897769	0.02224698823367571	-0.001328385075757434	-0.1460873456288994	0.05727281849518131	0.04789201880052765	0.168450380951705	-14.36469804631877	-21.59520889565693	6.888747668347835	-5.046940506613423	-515.1483437589962	-66.78384209034772	-36.00596392396851	0.3788892626491691	0.5552222495748332	-0.4974549626697376	-0.7399570626240068	0.4596951615002351	0.01218791720991609	1.310993335099445	-0.6202691165032943	-0.6202691164351427	0.01462279184684107	0.1414040970952447	-0.05510776761868817	0.47233250066256	-1.951981056232885e-08	8.098853128721621e-07	5.626778588049263e-08	2.337957065349935e-07	1.738709969866309e-07	-1.00431357228927e-07	1.08040713906964e-07
1.54	-0.3891220823583691	-0.03276311395382582	0.8014908134719605	0.9696252635456797	-0.4169112482192895	-0.3136978102294619	-0.2097092184749106	0.5444641745769843	0.5444641745769987	-0.1743440607965835	-0.1539199518310624	-0.005665438919066321	-0.06842648806549419	0.8647013824434927	0.3834289770827981	0.4046393392566703	-2.371213259218782	0.2435642010468951	-0.5853303702642777	0.3728069025426189	-1.501544242899092	-1.501544242898826	-0.001220206984373401	0.09696664325886169	-0.07117793104029194	0.2340349679511994	-0.1735003067313111	0.02094107371112758	-0.001444949048193778	-0.144488472935393	0.05609537136686202	0.04649831891729588	0.1630692780015861	-14.56180714426089	-21.01594062118991	6.865534042680715	-4.610601381656632	-511.9812435047032	-66.97097976087113	-36.506580459891	0.2759203526700352	0.5189032835421167	-0.5490340189082036	-0.4934337175747637	0.4588685632137872	0.102980498713714	1.304689192347477	-0.4909320565166761	-0.4909320565165738	0.03793047966774694	0.1843482238643657	-0.04135923639633947	0.4780315590207412	-2.346283649003519e-08	8.273764008741719e-07	5.947086829954452e-08	2.355898986309818e-07	1.796031202538423e-07	-8.988261034706505e-08	1.06595103981674e-07
1.55	-0.3804616744398902	-0.02890338323912131	0.8055090184721557	0.945890540829457	-0.4144536580757917	-0.3195467076233712	-0.2059174843000263	0.5294264442268402	0.5294264442269907	-0.1743552225038029	-0.1529429739512096	-0.006379229218690023	-0.06606326040561299	0.8672480543045198	0.3884561641180908	0.3989230996090706	-2.375380011128635	0.2479163961767256	-0.5843726371078947	0.3854734567536729	-1.505774540327996	-1.505774540327658	-0.001015910715990919	0.0984121011902888	-0.0715597598474299	0.2385808012244161	-0.1666477738832284	0.01943277846814773	-0.00160911330435741	-0.1430238827357971	0.0551719423630171	0.04505144111999417	0.1576161727846811	-14.68475770799822	-20.42822298783223	6.842870623006414	-4.221790352624423	-508.8930755457134	-67.13914248251487	-36.98093519770357	0.2241938816993695	0.4855231320639039	-0.5946648512987396	-0.3256282385725228	0.4176334123013998	0.1037351619464809	1.237667183389672	-0.3550063695776307	-0.3550063695669131	0.01127388092297416	0.1220805151673183	-0.03353090462454678	0.4382540783278653	-2.663017683678169e-08	8.419576000149995e-07	6.14748711937128e-08	2.351449918576674e-07	1.871302247523442e-07	-7.983362631144728e-08	1.049388900333944e-07
1.56	-0.3717797691470247	-0.02499520131035566	0.8094677118931524	0.9221246841319599	-0.411953698296108	-0.3253837145981479	-0.2020010788534504	0.5143532253457084	0.5143532253459937	-0.1743644223122429	-0.1519520543045625	-0.007096225046735425	-0.06365549543962844	0.8690008573207594	0.3931192198950257	0.3927370234169523	-2.377440055473771	0.252038128283904	-0.5829522864376755	0.397741156880939	-1.508641949096914	-1.508641949096505	-0.0008278272276289269	0.0997549966171328	-0.07181903672464894	0.2429424291718625	-0.1597952410351431	0.01792448322516956	-0.001773277560535476	-0.1415592925361988	0.05424851335917281	0.04360456332269474	0.1521630675677776	-14.81791263020282	-19.83908964246897	6.820405500804562	-3.807397277507997	-505.938863987728	-67.33250918569924	-37.42729117907037	0.1171465837125397	0.446077031870511	-0.6430013278119063	-0.07209220463163163	0.4127759586833948	0.1955040014809822	1.2249183755899	-0.2183543245195215	-0.2183543245195439	0.0346879236636523	0.1638357229477386	-0.01684885041256152	0.4411904938666893	-2.193985521522935e-08	8.343751879575343e-07	3.612587931959084e-08	2.236946293495255e-07	2.068622846813174e-07	-7.018486629042042e-08	1.048366857649253e-07
